<svg xmlns="http://www.w3.org/2000/svg" viewBox="0 0 512 512">
  <defs>
    <radialGradient id="bg" cx="50%" cy="35%" r="70%">
      <stop offset="0" stop-color="#145b79"/>
      <stop offset="1" stop-color="#061326"/>
    </radialGradient>
    <radialGradient id="body" cx="35%" cy="25%" r="80%">
      <stop offset="0" stop-color="#ffd7e9"/>
      <stop offset="0.58" stop-color="#ff89bb"/>
      <stop offset="1" stop-color="#df4a8b"/>
    </radialGradient>
  </defs>
  <rect width="512" height="512" rx="110" fill="url(#bg)"/>
  <circle cx="88" cy="120" r="13" fill="none" stroke="#b8f2ff" stroke-width="5" opacity=".35"/>
  <circle cx="420" cy="156" r="22" fill="none" stroke="#b8f2ff" stroke-width="6" opacity=".28"/>
  <circle cx="388" cy="380" r="12" fill="none" stroke="#b8f2ff" stroke-width="4" opacity=".28"/>
  <g transform="translate(256 275)">
    <ellipse cx="-132" cy="-74" rx="69" ry="38" transform="rotate(-32)" fill="#ffafd0"/>
    <ellipse cx="132" cy="-74" rx="69" ry="38" transform="rotate(32)" fill="#ffafd0"/>
    <path d="M-164 38C-171-90-111-169 0-176 111-169 171-90 164 38 136 86 107 96 78 66 48 109 20 111 0 74-22 113-54 106-80 66-111 97-141 86-164 38Z" fill="url(#body)"/>
    <circle cx="-50" cy="-34" r="15" fill="#17223e"/>
    <circle cx="50" cy="-34" r="15" fill="#17223e"/>
    <circle cx="-44" cy="-40" r="5" fill="white"/>
    <circle cx="56" cy="-40" r="5" fill="white"/>
    <path d="M-24 18Q0 42 24 18" fill="none" stroke="#a92d70" stroke-width="9" stroke-linecap="round"/>
  </g>
</svg>
